<?xml version="1.0" encoding="UTF-8"?>
<svg version="1.1" viewBox="365 336 618 249" xmlns="http://www.w3.org/2000/svg">

<!-- LOGO MARK -->
<path transform="translate(460,344)"
d="m0 0h185l7 1-3 2-13 4-10 6-9 9-10 16-9 13-10 9-10 5-12 3-21 1-11 43-20 74-12 45-2 2-4-16-7-11-9-8-12-9-9-8-6-10-3-9v-16l11-42 9-34 1-2h-98v-2l14-4 8-4 10-9 7-9 10-17 11-12 9-6 11-4zm88 15-7 14-7 9-8 8-11 7-12 6-16 5-14 3v1h72l3-15 1-9v-29z"
fill="#050709"/>

<!-- TEXT (shifted +35px right for gap) -->
<path transform="translate(935,450)"
d="m0 0h11l14 3 6 4 6 7 3 10v50h-21v-6l-10 6-4 1h-15l-10-4-7-8-2-5v-12l4-8 5-4 7-3 7-1h18l6 1-2-7-3-3-3-1h-15l-10 4-3-1-7-12v-3l8-4 10-3zm-1 43-6 3-1 2v6l4 5 2 1h10l6-3 3-3 1-3v-8z"
fill="#050709"/>

<path transform="translate(803,450)"
d="m0 0h12l10 4 7 7 4 10 1 7v45l-1 1h-21l-1-1-1-46-3-5-10-2-7 2-4 5-1 3-1 44h-22v-72h22l1 7 7-6z"
fill="#050709"/>

<path transform="translate(630,426)"
d="m0 0h84v19l-30 1v76l-1 2h-23v-79h-31v-18z"
fill="#07090B"/>

<path transform="translate(858,434)"
d="m0 0h21l1 2v16h19v16h-19l1 36 2 2h13l5 11-1 4-11 4h-14l-10-4-6-8-1-3-1-41-12-1v-16h13z"
fill="#050709"/>

<path transform="translate(726,451)"
d="m0 0h19l1 1v72h-22v-72z"
fill="#050709"/>

<path transform="translate(732,415)"
d="m0 0h7l5 3 4 5v9l-6 7-9 1-6-3-4-6v-7l3-5 3-3z"
fill="#050709"/>

</svg>
