<?xml version="1.0" encoding="UTF-8"?>
<svg version="1.1" viewBox="-6 84 356 120" xmlns="http://www.w3.org/2000/svg">

<path transform="translate(305,124)"
d="m0 0h11l14 3 6 4 6 7 3 10v50h-21v-6l-10 6-4 1h-15l-10-4-7-8-2-5v-12l4-8 5-4 7-3 7-1h18l6 1-2-7-3-3-3-1h-15l-10 4-3-1-7-12v-3l8-4 10-3zm-1 43-6 3-1 2v6l4 5 2 1h10l6-3 3-3 1-3v-8z"
fill="#050709"/>

<path transform="translate(173,124)"
d="m0 0h12l10 4 7 7 4 10 1 7v45l-1 1h-21l-1-1-1-46-3-5-10-2-7 2-4 5-1 3-1 44h-22v-72h22l1 7 7-6z"
fill="#050709"/>

<path transform="translate(0,100)"
d="m0 0h84v19l-30 1v76l-1 2h-23v-79h-31v-18z"
fill="#07090B"/>

<path transform="translate(228,108)"
d="m0 0h21l1 2v16h19v16h-19l1 36 2 2h13l5 11-1 4-11 4h-14l-10-4-6-8-1-3-1-41-12-1v-16h13z"
fill="#050709"/>

<path transform="translate(96,125)"
d="m0 0h19l1 1v72h-22v-72z"
fill="#050709"/>

<path transform="translate(102,89)"
d="m0 0h7l5 3 4 5v9l-6 7-9 1-6-3-4-6v-7l3-5 3-3z"
fill="#050709"/>

</svg>
